<svg width="15" height="11" viewBox="0 0 15 11" fill="none" xmlns="http://www.w3.org/2000/svg">
<path d="M14.5155 5.17395L10.0155 0.679856C9.86925 0.533798 9.6315 0.533798 9.48525 0.679856C9.339 0.825914 9.339 1.06335 9.48525 1.20941L13.3447 5.06384H1.125C0.918 5.06384 0.75 5.23162 0.75 5.43835C0.75 5.64508 0.918 5.81286 1.125 5.81286H13.3447L9.48525 9.66729C9.339 9.81335 9.339 10.0508 9.48525 10.1968C9.55875 10.2702 9.65475 10.3062 9.75075 10.3062C9.84675 10.3062 9.94275 10.2695 10.0162 10.1968L14.5162 5.70275C14.6625 5.55669 14.6625 5.31926 14.5162 5.1732L14.5155 5.17395Z" fill="white"/>
</svg>
