<svg width="15" height="11" viewBox="0 0 15 11" fill="none" xmlns="http://www.w3.org/2000/svg">
<path d="M0.4845 5.17395L4.9845 0.679856C5.13075 0.533798 5.3685 0.533798 5.51475 0.679856C5.661 0.825914 5.661 1.06335 5.51475 1.20941L1.65525 5.06384H13.875C14.082 5.06384 14.25 5.23162 14.25 5.43835C14.25 5.64508 14.082 5.81286 13.875 5.81286H1.65525L5.51475 9.66729C5.661 9.81335 5.661 10.0508 5.51475 10.1968C5.44125 10.2702 5.34525 10.3062 5.24925 10.3062C5.15325 10.3062 5.05725 10.2695 4.98375 10.1968L0.48375 5.70275C0.337501 5.55669 0.337501 5.31926 0.48375 5.1732L0.4845 5.17395Z" fill="white"/>
</svg>
