<svg width="52" height="52" viewBox="0 0 52 52" fill="none" xmlns="http://www.w3.org/2000/svg">
<circle cx="26" cy="26" r="26" fill="#EDBC5A"/>
<g clip-path="url(#clip0_368_10)">
<path d="M36.7479 25.3917C36.7477 25.3914 36.7475 25.3911 36.7472 25.3909L32.2568 20.9221C31.9204 20.5874 31.3762 20.5886 31.0414 20.925C30.7066 21.2614 30.7079 21.8056 31.0443 22.1404L34.0591 25.1406H15.8594C15.3847 25.1406 15 25.5254 15 26C15 26.4746 15.3847 26.8594 15.8594 26.8594H34.0591L31.0443 29.8596C30.7079 30.1944 30.7066 30.7385 31.0414 31.075C31.3763 31.4114 31.9205 31.4126 32.2568 31.0779L36.7472 26.6091C36.7475 26.6089 36.7477 26.6086 36.748 26.6083C37.0846 26.2724 37.0835 25.7265 36.7479 25.3917Z" fill="white"/>
</g>
<defs>
<clipPath id="clip0_368_10">
<rect width="22" height="22" fill="white" transform="translate(15 15)"/>
</clipPath>
</defs>
</svg>
