<svg width="31" height="30" viewBox="0 0 31 30" fill="none" xmlns="http://www.w3.org/2000/svg">
<path d="M30.3339 0.243573C30.1066 0.0177413 29.7706 -0.0588585 29.4678 0.0467332L1.13447 10.0468C0.800601 10.1643 0.577516 10.4799 0.578126 10.8336C0.578431 11.1873 0.801822 11.5022 1.13569 11.6194L13.4615 15.9377L19.1131 10.2855C19.44 9.96839 19.9606 9.97236 20.2826 10.2943C20.6045 10.6163 20.6085 11.1369 20.2914 11.4638L14.6401 17.116L18.9584 29.4427C19.0753 29.776 19.3896 29.9991 19.7427 30H19.7443C20.0976 30.0003 20.4126 29.7775 20.5304 29.4443L30.5305 1.11059C30.6364 0.807849 30.5601 0.471237 30.3339 0.243573Z" fill="#141414"/>
</svg>
